<svg xmlns="http://www.w3.org/2000/svg" xmlns:xlink="http://www.w3.org/1999/xlink" width="500" zoomAndPan="magnify" viewBox="0 0 375 374.999991" height="500" preserveAspectRatio="xMidYMid meet" version="1.0"><defs><g/><clipPath id="7842666347"><path d="M 19.796875 0.925781 L 138.820312 0.925781 L 138.820312 119.949219 L 19.796875 119.949219 Z M 19.796875 0.925781 " clip-rule="nonzero"/></clipPath><clipPath id="aafe242ec2"><path d="M 79.308594 0.925781 C 46.441406 0.925781 19.796875 27.570312 19.796875 60.4375 C 19.796875 93.304688 46.441406 119.949219 79.308594 119.949219 C 112.175781 119.949219 138.820312 93.304688 138.820312 60.4375 C 138.820312 27.570312 112.175781 0.925781 79.308594 0.925781 Z M 79.308594 0.925781 " clip-rule="nonzero"/></clipPath><clipPath id="d00fd6cc02"><path d="M 0.796875 0.925781 L 119.820312 0.925781 L 119.820312 119.949219 L 0.796875 119.949219 Z M 0.796875 0.925781 " clip-rule="nonzero"/></clipPath><clipPath id="695b2010e9"><path d="M 60.308594 0.925781 C 27.441406 0.925781 0.796875 27.570312 0.796875 60.4375 C 0.796875 93.304688 27.441406 119.949219 60.308594 119.949219 C 93.175781 119.949219 119.820312 93.304688 119.820312 60.4375 C 119.820312 27.570312 93.175781 0.925781 60.308594 0.925781 Z M 60.308594 0.925781 " clip-rule="nonzero"/></clipPath><clipPath id="c9e90e6150"><rect x="0" width="120" y="0" height="120"/></clipPath><clipPath id="46bf8bee21"><path d="M 12 22 L 125 22 L 125 114 L 12 114 Z M 12 22 " clip-rule="nonzero"/></clipPath><clipPath id="e075a105b5"><path d="M 0.0898438 52.164062 L 105.234375 14.382812 L 128.984375 80.492188 L 23.84375 118.269531 Z M 0.0898438 52.164062 " clip-rule="nonzero"/></clipPath><clipPath id="84c2e2ef23"><path d="M 0.0898438 52.164062 L 105.234375 14.382812 L 128.984375 80.492188 L 23.84375 118.269531 Z M 0.0898438 52.164062 " clip-rule="nonzero"/></clipPath><clipPath id="304fc230d5"><rect x="0" width="139" y="0" height="120"/></clipPath></defs><g transform="matrix(1, 0, 0, 1, 107, 85)"><g clip-path="url(#304fc230d5)"><g clip-path="url(#7842666347)"><g clip-path="url(#aafe242ec2)"><g transform="matrix(1, 0, 0, 1, 19, 0)"><g clip-path="url(#c9e90e6150)"><g clip-path="url(#d00fd6cc02)"><g clip-path="url(#695b2010e9)"><path fill="#e2a9f1" d="M 0.796875 0.925781 L 119.820312 0.925781 L 119.820312 119.949219 L 0.796875 119.949219 Z M 0.796875 0.925781 " fill-opacity="1" fill-rule="nonzero"/></g></g></g></g></g></g><g clip-path="url(#46bf8bee21)"><g clip-path="url(#e075a105b5)"><g clip-path="url(#84c2e2ef23)"><path fill="#545454" d="M 24.085938 43.75 C 18.304688 45.828125 14.023438 50.792969 12.832031 56.820312 L 12.753906 57.207031 L 12.769531 57.609375 C 12.769531 57.609375 13.011719 65.683594 13.75 75.140625 C 14.492188 84.601562 15.550781 95.199219 17.839844 101.566406 C 21.09375 110.625 31.167969 115.375 40.226562 112.121094 C 48.214844 109.25 52.84375 101.101562 51.585938 92.988281 L 51.636719 93.40625 C 51.585938 91.953125 51.410156 90.3125 51.230469 88.757812 C 51.039062 87.097656 51.972656 85.582031 53.523438 85.027344 L 85.199219 73.644531 C 86.757812 73.085938 88.4375 73.660156 89.34375 75.066406 C 90.191406 76.378906 91.101562 77.753906 91.988281 78.90625 L 91.761719 78.554688 C 95.957031 85.625 104.714844 88.949219 112.699219 86.082031 C 121.757812 82.828125 126.503906 72.753906 123.25 63.695312 C 120.960938 57.324219 115.035156 48.476562 109.585938 40.707031 C 104.136719 32.941406 99.183594 26.5625 99.183594 26.5625 L 98.9375 26.242188 L 98.632812 25.992188 C 93.882812 22.101562 87.414062 20.996094 81.632812 23.074219 Z M 26.453125 50.339844 L 84 29.660156 C 87.425781 28.429688 91.207031 29.136719 94.046875 31.382812 C 94.40625 31.847656 98.722656 37.425781 103.859375 44.742188 C 109.199219 52.351562 115.054688 61.585938 116.660156 66.0625 C 118.636719 71.5625 115.832031 77.515625 110.332031 79.492188 C 105.492188 81.230469 100.28125 79.21875 97.769531 74.988281 L 97.660156 74.804688 L 97.546875 74.644531 C 96.894531 73.796875 96.027344 72.519531 95.214844 71.269531 L 95.210938 71.257812 C 92.566406 67.1875 87.429688 65.40625 82.832031 67.058594 L 51.15625 78.4375 C 46.558594 80.089844 43.726562 84.742188 44.289062 89.566406 C 44.453125 91.050781 44.597656 92.585938 44.636719 93.65625 L 44.648438 93.851562 L 44.679688 94.0625 C 45.4375 98.921875 42.710938 103.789062 37.859375 105.53125 C 32.359375 107.507812 26.40625 104.703125 24.429688 99.199219 C 22.820312 94.726562 21.457031 83.878906 20.738281 74.609375 C 20.039062 65.699219 19.820312 58.648438 19.800781 58.058594 C 20.5625 54.519531 23.027344 51.570312 26.453125 50.339844 Z M 31.171875 55.863281 L 33.539062 62.453125 L 26.953125 64.820312 L 29.320312 71.40625 L 35.90625 69.039062 L 38.273438 75.628906 L 44.863281 73.261719 L 42.496094 66.671875 L 49.085938 64.304688 L 46.71875 57.71875 L 40.128906 60.085938 L 37.761719 53.496094 Z M 80.585938 38.109375 C 78.765625 38.765625 77.820312 40.773438 78.472656 42.589844 C 79.125 44.40625 81.132812 45.351562 82.953125 44.699219 C 84.769531 44.046875 85.714844 42.039062 85.0625 40.222656 C 84.410156 38.40625 82.402344 37.457031 80.585938 38.109375 Z M 76.363281 47.066406 C 74.546875 47.71875 73.601562 49.726562 74.253906 51.542969 C 74.90625 53.359375 76.914062 54.308594 78.730469 53.65625 C 80.546875 53 81.492188 50.992188 80.839844 49.175781 C 80.1875 47.359375 78.179688 46.414062 76.363281 47.066406 Z M 89.539062 42.332031 C 87.722656 42.984375 86.777344 44.992188 87.429688 46.808594 C 88.082031 48.628906 90.089844 49.574219 91.90625 48.921875 C 93.722656 48.265625 94.671875 46.261719 94.015625 44.441406 C 93.363281 42.625 91.355469 41.679688 89.539062 42.332031 Z M 85.320312 51.289062 C 83.5 51.941406 82.554688 53.949219 83.207031 55.765625 C 83.859375 57.582031 85.867188 58.527344 87.6875 57.875 C 89.503906 57.222656 90.449219 55.214844 89.796875 53.398438 C 89.144531 51.582031 87.136719 50.632812 85.320312 51.289062 Z M 85.320312 51.289062 " fill-opacity="1" fill-rule="nonzero"/></g></g></g></g></g><g fill="#545454" fill-opacity="1"><g transform="translate(44.924709, 256.938674)"><g><path d="M 21.578125 -30.109375 C 23.566406 -30.109375 25.414062 -29.867188 27.125 -29.390625 C 28.832031 -28.910156 30.328125 -28.285156 31.609375 -27.515625 C 32.890625 -26.742188 33.910156 -25.921875 34.671875 -25.046875 L 31.6875 -21.75 C 30.300781 -22.882812 28.753906 -23.816406 27.046875 -24.546875 C 25.335938 -25.273438 23.515625 -25.640625 21.578125 -25.640625 C 19.222656 -25.640625 17.097656 -25.171875 15.203125 -24.234375 C 13.316406 -23.296875 11.816406 -22.019531 10.703125 -20.40625 C 9.597656 -18.800781 9.046875 -16.972656 9.046875 -14.921875 C 9.046875 -12.566406 9.628906 -10.582031 10.796875 -8.96875 C 11.960938 -7.363281 13.488281 -6.140625 15.375 -5.296875 C 17.269531 -4.460938 19.296875 -4.046875 21.453125 -4.046875 C 23.441406 -4.046875 25.257812 -4.332031 26.90625 -4.90625 C 28.5625 -5.476562 29.875 -6.242188 30.84375 -7.203125 C 31.8125 -8.171875 32.296875 -9.28125 32.296875 -10.53125 L 21.5 -10.53125 L 21.5 -15.0625 L 37.203125 -15.0625 C 37.222656 -14.6875 37.253906 -14.3125 37.296875 -13.9375 C 37.335938 -13.570312 37.359375 -13.21875 37.359375 -12.875 C 37.359375 -11.3125 37.117188 -9.828125 36.640625 -8.421875 C 36.160156 -7.015625 35.492188 -5.8125 34.640625 -4.8125 C 33.328125 -3.164062 31.507812 -1.878906 29.1875 -0.953125 C 26.875 -0.0351562 24.195312 0.421875 21.15625 0.421875 C 18.851562 0.421875 16.6875 0.078125 14.65625 -0.609375 C 12.625 -1.304688 10.820312 -2.316406 9.25 -3.640625 C 7.6875 -4.960938 6.457031 -6.578125 5.5625 -8.484375 C 4.664062 -10.390625 4.21875 -12.535156 4.21875 -14.921875 C 4.21875 -17.085938 4.660156 -19.085938 5.546875 -20.921875 C 6.429688 -22.753906 7.660156 -24.359375 9.234375 -25.734375 C 10.816406 -27.117188 12.660156 -28.191406 14.765625 -28.953125 C 16.867188 -29.722656 19.140625 -30.109375 21.578125 -30.109375 Z M 21.578125 -30.109375 "/></g></g></g><g fill="#545454" fill-opacity="1"><g transform="translate(82.067353, 256.938674)"><g><path d="M 29.90625 0 L 26.703125 -7.171875 L 10.921875 -7.171875 L 7.671875 0 L 2.90625 0 L 16.375 -29.859375 L 21.546875 -29.859375 L 34.9375 0 Z M 16.515625 -19.453125 L 12.921875 -11.609375 L 24.703125 -11.609375 L 21.03125 -19.625 C 20.65625 -20.53125 20.28125 -21.421875 19.90625 -22.296875 C 19.539062 -23.179688 19.175781 -24.125 18.8125 -25.125 C 18.414062 -24.101562 18.03125 -23.128906 17.65625 -22.203125 C 17.289062 -21.273438 16.910156 -20.359375 16.515625 -19.453125 Z M 16.515625 -19.453125 "/></g></g></g><g fill="#545454" fill-opacity="1"><g transform="translate(115.755782, 256.938674)"><g><path d="M 11 -29.859375 L 22.6875 -13.953125 L 34.46875 -29.859375 L 38.90625 -29.859375 L 38.90625 0 L 34.296875 0 L 34.296875 -12.5 C 34.296875 -14.34375 34.332031 -16.085938 34.40625 -17.734375 C 34.476562 -19.390625 34.597656 -21.03125 34.765625 -22.65625 L 24.0625 -8.578125 L 21.25 -8.578125 L 10.625 -22.65625 C 10.789062 -21 10.910156 -19.351562 10.984375 -17.71875 C 11.054688 -16.082031 11.09375 -14.34375 11.09375 -12.5 L 11.09375 0 L 6.484375 0 L 6.484375 -29.859375 Z M 11 -29.859375 "/></g></g></g><g fill="#545454" fill-opacity="1"><g transform="translate(156.992309, 256.938674)"><g><path d="M 6.484375 -29.859375 L 29.09375 -29.859375 L 29.09375 -25.421875 L 11.09375 -25.421875 L 11.09375 -17.53125 L 26.75 -17.53125 L 26.75 -13.09375 L 11.09375 -13.09375 L 11.09375 -4.4375 L 29.09375 -4.4375 L 29.09375 0 L 6.484375 0 Z M 6.484375 -29.859375 "/></g></g></g><g fill="#545454" fill-opacity="1"><g transform="translate(187.482388, 256.938674)"><g><path d="M 31.828125 -20.5625 C 31.828125 -18.539062 31.207031 -16.726562 29.96875 -15.125 C 28.726562 -13.519531 27.15625 -12.375 25.25 -11.6875 L 33.359375 0.046875 L 27.640625 0 L 20.046875 -11.09375 L 11.09375 -11.09375 L 11.09375 0 L 6.484375 0 L 6.484375 -29.859375 L 22.21875 -29.859375 C 23.894531 -29.859375 25.457031 -29.457031 26.90625 -28.65625 C 28.363281 -27.863281 29.546875 -26.769531 30.453125 -25.375 C 31.367188 -23.988281 31.828125 -22.382812 31.828125 -20.5625 Z M 21.109375 -25.421875 L 11.09375 -25.421875 L 11.09375 -15.53125 L 21.546875 -15.53125 C 22.566406 -15.53125 23.488281 -15.765625 24.3125 -16.234375 C 25.132812 -16.703125 25.78125 -17.316406 26.25 -18.078125 C 26.71875 -18.847656 26.953125 -19.675781 26.953125 -20.5625 C 26.953125 -21.5 26.6875 -22.335938 26.15625 -23.078125 C 25.632812 -23.816406 24.925781 -24.390625 24.03125 -24.796875 C 23.132812 -25.210938 22.160156 -25.421875 21.109375 -25.421875 Z M 21.109375 -25.421875 "/></g></g></g><g fill="#545454" fill-opacity="1"><g transform="translate(221.597258, 256.938674)"><g/></g></g><g fill="#545454" fill-opacity="1"><g transform="translate(234.986845, 256.938674)"><g><path d="M 28.875 -4.4375 L 28.875 0 L 6.484375 0 L 6.484375 -29.859375 L 11.09375 -29.859375 L 11.09375 -4.4375 Z M 28.875 -4.4375 "/></g></g></g><g fill="#545454" fill-opacity="1"><g transform="translate(264.538738, 256.938674)"><g><path d="M 24.359375 0 L 6.3125 0 L 6.3125 -4.4375 L 13.015625 -4.4375 L 13.015625 -25.421875 L 6.3125 -25.421875 L 6.3125 -29.859375 L 24.359375 -29.859375 L 24.359375 -25.421875 L 17.609375 -25.421875 L 17.609375 -4.4375 L 24.359375 -4.4375 Z M 24.359375 0 "/></g></g></g><g fill="#545454" fill-opacity="1"><g transform="translate(291.062891, 256.938674)"><g><path d="M 21.375 -29.859375 C 24.84375 -29.859375 27.453125 -29.21875 29.203125 -27.9375 C 30.953125 -26.65625 31.828125 -24.796875 31.828125 -22.359375 C 31.828125 -21.015625 31.457031 -19.804688 30.71875 -18.734375 C 29.976562 -17.671875 28.894531 -16.859375 27.46875 -16.296875 C 28.519531 -15.953125 29.492188 -15.46875 30.390625 -14.84375 C 31.285156 -14.21875 32.007812 -13.40625 32.5625 -12.40625 C 33.125 -11.414062 33.40625 -10.207031 33.40625 -8.78125 C 33.40625 -7.050781 33.066406 -5.613281 32.390625 -4.46875 C 31.722656 -3.332031 30.847656 -2.4375 29.765625 -1.78125 C 28.691406 -1.132812 27.5 -0.675781 26.1875 -0.40625 C 24.882812 -0.132812 23.578125 0 22.265625 0 L 6.484375 0 L 6.484375 -29.859375 Z M 21.328125 -25.421875 L 11.09375 -25.421875 L 11.09375 -17.65625 L 21.84375 -17.65625 C 23.238281 -17.6875 24.46875 -18.035156 25.53125 -18.703125 C 26.59375 -19.367188 27.125 -20.328125 27.125 -21.578125 C 27.125 -22.972656 26.5625 -23.960938 25.4375 -24.546875 C 24.320312 -25.128906 22.953125 -25.421875 21.328125 -25.421875 Z M 22.046875 -13.1875 L 11.09375 -13.1875 L 11.09375 -4.4375 L 22.265625 -4.4375 C 24.140625 -4.4375 25.679688 -4.796875 26.890625 -5.515625 C 28.097656 -6.242188 28.703125 -7.363281 28.703125 -8.875 C 28.703125 -9.976562 28.359375 -10.84375 27.671875 -11.46875 C 26.992188 -12.09375 26.144531 -12.535156 25.125 -12.796875 C 24.101562 -13.054688 23.078125 -13.1875 22.046875 -13.1875 Z M 22.046875 -13.1875 "/></g></g></g><g fill="#e2a9f1" fill-opacity="1"><g transform="translate(121.149628, 285.123351)"><g><path d="M 6.578125 -9.171875 C 7.179688 -9.171875 7.742188 -9.097656 8.265625 -8.953125 C 8.785156 -8.804688 9.238281 -8.613281 9.625 -8.375 C 10.019531 -8.144531 10.332031 -7.894531 10.5625 -7.625 L 9.65625 -6.625 C 9.226562 -6.976562 8.753906 -7.265625 8.234375 -7.484375 C 7.722656 -7.703125 7.171875 -7.8125 6.578125 -7.8125 C 5.859375 -7.8125 5.207031 -7.664062 4.625 -7.375 C 4.050781 -7.09375 3.59375 -6.707031 3.25 -6.21875 C 2.914062 -5.726562 2.75 -5.171875 2.75 -4.546875 C 2.75 -3.828125 2.925781 -3.222656 3.28125 -2.734375 C 3.644531 -2.242188 4.113281 -1.867188 4.6875 -1.609375 C 5.257812 -1.359375 5.875 -1.234375 6.53125 -1.234375 C 7.144531 -1.234375 7.703125 -1.316406 8.203125 -1.484375 C 8.703125 -1.660156 9.097656 -1.894531 9.390625 -2.1875 C 9.691406 -2.488281 9.84375 -2.832031 9.84375 -3.21875 L 6.546875 -3.21875 L 6.546875 -4.59375 L 11.34375 -4.59375 C 11.34375 -4.476562 11.347656 -4.363281 11.359375 -4.25 C 11.378906 -4.132812 11.390625 -4.023438 11.390625 -3.921875 C 11.390625 -3.453125 11.316406 -3 11.171875 -2.5625 C 11.023438 -2.132812 10.820312 -1.769531 10.5625 -1.46875 C 10.15625 -0.96875 9.597656 -0.578125 8.890625 -0.296875 C 8.191406 -0.015625 7.378906 0.125 6.453125 0.125 C 5.742188 0.125 5.078125 0.0195312 4.453125 -0.1875 C 3.835938 -0.394531 3.289062 -0.703125 2.8125 -1.109375 C 2.34375 -1.515625 1.96875 -2.003906 1.6875 -2.578125 C 1.414062 -3.160156 1.28125 -3.816406 1.28125 -4.546875 C 1.28125 -5.203125 1.414062 -5.8125 1.6875 -6.375 C 1.957031 -6.9375 2.332031 -7.425781 2.8125 -7.84375 C 3.289062 -8.257812 3.847656 -8.582031 4.484375 -8.8125 C 5.128906 -9.050781 5.828125 -9.171875 6.578125 -9.171875 Z M 6.578125 -9.171875 "/></g></g></g><g fill="#e2a9f1" fill-opacity="1"><g transform="translate(133.729774, 285.123351)"><g><path d="M 9.109375 0 L 8.140625 -2.1875 L 3.328125 -2.1875 L 2.34375 0 L 0.890625 0 L 4.984375 -9.09375 L 6.5625 -9.09375 L 10.640625 0 Z M 5.03125 -5.921875 L 3.9375 -3.53125 L 7.53125 -3.53125 L 6.40625 -5.984375 C 6.289062 -6.253906 6.175781 -6.523438 6.0625 -6.796875 C 5.957031 -7.066406 5.847656 -7.351562 5.734375 -7.65625 C 5.609375 -7.34375 5.488281 -7.046875 5.375 -6.765625 C 5.269531 -6.484375 5.15625 -6.203125 5.03125 -5.921875 Z M 5.03125 -5.921875 "/></g></g></g><g fill="#e2a9f1" fill-opacity="1"><g transform="translate(145.257247, 285.123351)"><g><path d="M 3.359375 -9.09375 L 6.921875 -4.25 L 10.5 -9.09375 L 11.859375 -9.09375 L 11.859375 0 L 10.453125 0 L 10.453125 -3.8125 C 10.453125 -4.375 10.460938 -4.90625 10.484375 -5.40625 C 10.503906 -5.90625 10.539062 -6.40625 10.59375 -6.90625 L 7.328125 -2.609375 L 6.46875 -2.609375 L 3.234375 -6.90625 C 3.285156 -6.40625 3.320312 -5.90625 3.34375 -5.40625 C 3.363281 -4.90625 3.375 -4.375 3.375 -3.8125 L 3.375 0 L 1.96875 0 L 1.96875 -9.09375 Z M 3.359375 -9.09375 "/></g></g></g><g fill="#e2a9f1" fill-opacity="1"><g transform="translate(159.085005, 285.123351)"><g><path d="M 1.96875 -9.09375 L 8.859375 -9.09375 L 8.859375 -7.75 L 3.375 -7.75 L 3.375 -5.34375 L 8.15625 -5.34375 L 8.15625 -3.984375 L 3.375 -3.984375 L 3.375 -1.359375 L 8.859375 -1.359375 L 8.859375 0 L 1.96875 0 Z M 1.96875 -9.09375 "/></g></g></g><g fill="#e2a9f1" fill-opacity="1"><g transform="translate(169.637773, 285.123351)"><g/></g></g><g fill="#e2a9f1" fill-opacity="1"><g transform="translate(174.979131, 285.123351)"><g><path d="M 9.703125 -6.265625 C 9.703125 -5.648438 9.507812 -5.097656 9.125 -4.609375 C 8.75 -4.117188 8.273438 -3.769531 7.703125 -3.5625 L 10.171875 0.015625 L 8.421875 0 L 6.109375 -3.375 L 3.375 -3.375 L 3.375 0 L 1.96875 0 L 1.96875 -9.09375 L 6.765625 -9.09375 C 7.285156 -9.09375 7.765625 -8.972656 8.203125 -8.734375 C 8.640625 -8.492188 9 -8.160156 9.28125 -7.734375 C 9.5625 -7.304688 9.703125 -6.816406 9.703125 -6.265625 Z M 6.4375 -7.75 L 3.375 -7.75 L 3.375 -4.734375 L 6.5625 -4.734375 C 6.875 -4.734375 7.15625 -4.800781 7.40625 -4.9375 C 7.65625 -5.082031 7.851562 -5.269531 8 -5.5 C 8.144531 -5.738281 8.21875 -5.992188 8.21875 -6.265625 C 8.21875 -6.546875 8.132812 -6.800781 7.96875 -7.03125 C 7.8125 -7.257812 7.597656 -7.4375 7.328125 -7.5625 C 7.054688 -7.6875 6.757812 -7.75 6.4375 -7.75 Z M 6.4375 -7.75 "/></g></g></g><g fill="#e2a9f1" fill-opacity="1"><g transform="translate(186.636562, 285.123351)"><g><path d="M 1.96875 -9.09375 L 8.859375 -9.09375 L 8.859375 -7.75 L 3.375 -7.75 L 3.375 -5.34375 L 8.15625 -5.34375 L 8.15625 -3.984375 L 3.375 -3.984375 L 3.375 -1.359375 L 8.859375 -1.359375 L 8.859375 0 L 1.96875 0 Z M 1.96875 -9.09375 "/></g></g></g><g fill="#e2a9f1" fill-opacity="1"><g transform="translate(197.18933, 285.123351)"><g><path d="M 9.65625 -9.09375 L 11.0625 -9.09375 L 11.0625 0 L 9.703125 0 L 3.140625 -7.078125 C 3.191406 -6.523438 3.242188 -5.972656 3.296875 -5.421875 C 3.347656 -4.878906 3.375 -4.332031 3.375 -3.78125 L 3.375 0 L 1.96875 0 L 1.96875 -9.09375 L 3.3125 -9.09375 L 9.875 -1.828125 C 9.8125 -2.265625 9.765625 -2.726562 9.734375 -3.21875 C 9.710938 -3.707031 9.691406 -4.203125 9.671875 -4.703125 C 9.660156 -5.203125 9.65625 -5.671875 9.65625 -6.109375 Z M 9.65625 -9.09375 "/></g></g></g><g fill="#e2a9f1" fill-opacity="1"><g transform="translate(210.224333, 285.123351)"><g><path d="M 4.125 0 L 4.125 -7.75 L 1 -7.75 L 1 -9.09375 L 8.734375 -9.09375 L 8.734375 -7.75 L 5.53125 -7.75 L 5.53125 0 Z M 4.125 0 "/></g></g></g><g fill="#e2a9f1" fill-opacity="1"><g transform="translate(219.958345, 285.123351)"><g><path d="M 9.109375 0 L 8.140625 -2.1875 L 3.328125 -2.1875 L 2.34375 0 L 0.890625 0 L 4.984375 -9.09375 L 6.5625 -9.09375 L 10.640625 0 Z M 5.03125 -5.921875 L 3.9375 -3.53125 L 7.53125 -3.53125 L 6.40625 -5.984375 C 6.289062 -6.253906 6.175781 -6.523438 6.0625 -6.796875 C 5.957031 -7.066406 5.847656 -7.351562 5.734375 -7.65625 C 5.609375 -7.34375 5.488281 -7.046875 5.375 -6.765625 C 5.269531 -6.484375 5.15625 -6.203125 5.03125 -5.921875 Z M 5.03125 -5.921875 "/></g></g></g><g fill="#e2a9f1" fill-opacity="1"><g transform="translate(231.485818, 285.123351)"><g><path d="M 8.796875 -1.359375 L 8.796875 0 L 1.96875 0 L 1.96875 -9.09375 L 3.375 -9.09375 L 3.375 -1.359375 Z M 8.796875 -1.359375 "/></g></g></g><g fill="#e2a9f1" fill-opacity="1"><g transform="translate(241.752667, 285.123351)"><g><path d="M 2.203125 -2.78125 C 2.671875 -2.257812 3.15625 -1.851562 3.65625 -1.5625 C 4.15625 -1.269531 4.773438 -1.125 5.515625 -1.125 C 5.898438 -1.125 6.273438 -1.175781 6.640625 -1.28125 C 7.003906 -1.382812 7.300781 -1.535156 7.53125 -1.734375 C 7.769531 -1.941406 7.890625 -2.203125 7.890625 -2.515625 C 7.890625 -2.953125 7.648438 -3.257812 7.171875 -3.4375 C 6.703125 -3.625 6.046875 -3.78125 5.203125 -3.90625 C 4.140625 -4.0625 3.296875 -4.34375 2.671875 -4.75 C 2.054688 -5.164062 1.75 -5.78125 1.75 -6.59375 C 1.75 -7.132812 1.914062 -7.601562 2.25 -8 C 2.582031 -8.394531 3.03125 -8.695312 3.59375 -8.90625 C 4.164062 -9.125 4.789062 -9.234375 5.46875 -9.234375 C 6.320312 -9.234375 7.054688 -9.09375 7.671875 -8.8125 C 8.285156 -8.53125 8.773438 -8.132812 9.140625 -7.625 L 8.171875 -6.609375 C 7.867188 -7.015625 7.488281 -7.34375 7.03125 -7.59375 C 6.570312 -7.84375 6.039062 -7.96875 5.4375 -7.96875 C 4.8125 -7.96875 4.285156 -7.859375 3.859375 -7.640625 C 3.441406 -7.421875 3.234375 -7.109375 3.234375 -6.703125 C 3.234375 -6.390625 3.332031 -6.140625 3.53125 -5.953125 C 3.738281 -5.773438 4.023438 -5.628906 4.390625 -5.515625 C 4.765625 -5.410156 5.195312 -5.320312 5.6875 -5.25 C 6.164062 -5.175781 6.625 -5.085938 7.0625 -4.984375 C 7.5 -4.878906 7.890625 -4.734375 8.234375 -4.546875 C 8.585938 -4.359375 8.863281 -4.117188 9.0625 -3.828125 C 9.269531 -3.546875 9.375 -3.191406 9.375 -2.765625 C 9.375 -2.179688 9.210938 -1.671875 8.890625 -1.234375 C 8.566406 -0.796875 8.109375 -0.457031 7.515625 -0.21875 C 6.929688 0.0078125 6.242188 0.125 5.453125 0.125 C 4.585938 0.125 3.804688 -0.0078125 3.109375 -0.28125 C 2.421875 -0.5625 1.816406 -1.015625 1.296875 -1.640625 Z M 2.203125 -2.78125 "/></g></g></g></svg>